<?xml version="1.0" encoding="UTF-8" standalone="no"?>
<svg
   width="925.06799"
   height="750"
   id="screenshot-d0b388ca-decb-8008-8003-32c342e097f5"
   viewBox="-123 561.08 925.06799 750.00001"
   style="-webkit-print-color-adjust:exact"
   fill="none"
   version="1.1"
   xmlns="http://www.w3.org/2000/svg"
   xmlns:svg="http://www.w3.org/2000/svg">
  <defs
     id="defs9" />
  <g
     id="shape-d0b388ca-decb-8008-8003-32c342e097f5"
     transform="translate(-75.000001,-49.999999)">
    <g
       class="fills"
       id="fills-d0b388ca-decb-8008-8003-32c342e097f5">
      <path
         rx="0"
         ry="0"
         d="m -116.089,1313.708 6.843,-102.344 5.486,-1.044 5.486,-1.044 0.13,-1.945 c 0.228,-3.416 6.286,-45.793 8.184,-57.252 6.615,-39.942 19.471,-78.109 33.566,-99.651 3.191,-4.878 11.496,-17.486 18.454,-28.019 20.034,-30.321 45.975,-74.652 46.27,-79.07 0.06,-0.892 -4.109,-4.961 -9.263,-9.042 -22.45,-17.773 -40.819,-41.855 -54.233,-71.099 -2.565,-5.592 -5.729,-11.045 -7.031,-12.116 l -2.367,-1.949 -5.056,-0.437 c -2.781,-0.241 -7.391,-0.145 -10.245,0.214 l -5.189,0.653 0.781,-11.676 0.781,-11.676 6.679,-0.309 c 3.673,-0.17 8.489,-0.188 10.702,-0.04 l 4.023,0.269 1.459,-1.666 1.459,-1.666 -1.113,-3.627 c -1.209,-3.943 -5.662,-9.16 -9.027,-10.577 -1.162,-0.49 -2.062,-1.645 -2.001,-2.568 l 0.113,-1.677 3.075,0.205 c 1.692,0.114 4.617,1.5 6.499,3.082 3.353,2.816 5.209,5.497 17.38,25.117 14.482,23.346 29.428,40.085 39.954,44.749 6.599,2.924 8.814,2.947 14.846,0.156 l 5.03,-2.328 2.836,-5.052 2.837,-5.053 -0.343,-4.728 c -0.759,-10.466 -6.6,-18.61 -19.889,-27.732 l -8.215,-5.638 -10.49,-13.216 c -5.769,-7.268 -11.242,-13.931 -12.163,-14.806 -0.92,-0.875 -6.164,-2.639 -11.653,-3.92 -11.45,-2.673 -21.685,-6.68 -31.78,-12.441 l -7.043,-4.02 1.196,-17.884 1.196,-17.884 1.854,0.617 c 1.02,0.34 2.602,0.161 3.516,-0.399 l 1.661,-1.016 -1.148,-5.14 c -0.632,-2.827 -0.99,-7.511 -0.795,-10.409 l 0.354,-5.269 2.943,-5.096 2.943,-5.097 0.464,-9.966 0.465,-9.967 -3.087,-15.497 -3.086,-15.498 1.785,-31.337 1.786,-31.338 4.891,-9.383 c 2.691,-5.161 6.029,-13.145 7.418,-17.742 l 2.527,-8.359 2.457,0.164 2.457,0.164 -0.182,2.713 c -0.411,6.154 -3.742,16.938 -9.619,31.142 -3.427,8.285 -7.058,18.084 -8.069,21.776 l -1.839,6.714 0.971,5.826 c 0.533,3.205 3.92,16.498 7.527,29.542 3.606,13.043 7.376,26.681 8.378,30.306 l 1.822,6.591 -1.019,10.517 c -0.56,5.785 -1.272,13.677 -1.581,17.538 l -0.562,7.02 1.443,6.046 1.443,6.046 4.252,4.986 c 6.8,7.973 6.969,8.058 23.867,12.056 8.869,2.098 16.245,3.999 16.391,4.224 0.146,0.226 1.77,3.422 3.609,7.103 4.098,8.203 6.356,10.773 10.513,11.972 l 3.21,0.925 1.894,-1.799 c 1.042,-0.99 2.591,-3.977 3.443,-6.638 l 1.549,-4.838 -0.182,-8.25 C 18.64,759.37 18,750.327 17.318,743.812 16.636,737.297 15.796,727.49 15.451,722.017 l -0.626,-9.95 1.389,-11.258 1.39,-11.257 4.203,-11.386 4.203,-11.386 -0.079,-7.684 c -0.044,-4.227 -1.107,-11.448 -2.363,-16.046 l -2.283,-8.36 -9.518,-18.355 C 6.531,606.24 -1.195,590.638 -5.404,581.664 l -7.651,-16.315 7.815,0.173 7.815,0.172 2.163,3.436 c 1.189,1.889 5.585,7.774 9.767,13.078 4.182,5.304 10.529,15.255 14.105,22.115 l 6.502,12.472 2.78,1.694 2.779,1.695 3.78,-1.419 3.781,-1.42 8.348,-9.397 8.349,-9.396 3.986,-7.777 3.986,-7.777 0.891,-6.185 0.89,-6.185 4.58,0.306 4.58,0.306 0.327,5.959 0.327,5.958 1.448,0.72 c 2.411,1.199 5.86,-1.273 9.217,-6.608 l 3.183,-5.059 11.205,0.749 11.205,0.749 -2.516,5.711 c -4.551,10.33 -9.623,18.593 -18.725,30.508 l -8.977,11.75 -3.816,8.191 c -3.793,8.139 -4.803,11.835 -3.252,11.9 0.445,0.021 4.465,-0.738 8.933,-1.681 l 8.124,-1.715 4.157,-3.747 c 6.898,-6.218 16.283,-12.164 22.828,-14.464 3.401,-1.196 13.062,-3.529 21.469,-5.186 l 15.285,-3.013 2.483,-2.7 2.484,-2.699 -1.313,-10.484 c -0.722,-5.766 -1.189,-12.46 -1.038,-14.875 l 0.276,-4.393 4.702,0.315 4.703,0.314 0.253,6.047 c 0.139,3.326 0.924,7.348 1.745,8.938 l 1.491,2.892 2.3,0.153 c 3.155,0.211 8.651,-3.969 14.108,-10.731 l 4.571,-5.663 4.07,0.272 4.07,0.272 -5.744,8.253 c -3.159,4.539 -6.476,10.007 -7.37,12.151 -3.909,9.372 -8.013,16.237 -12.429,20.785 l -4.745,4.887 -4.618,1.488 c -2.54,0.819 -9.263,1.709 -14.941,1.978 -11.971,0.567 -20.557,2.45 -27.009,5.92 l -4.573,2.46 -4.91,7.098 c -5.382,7.781 -17.315,19.739 -23.529,23.578 -2.175,1.343 -7.996,3.238 -12.936,4.21 -14.508,2.855 -29.712,11.195 -35.006,19.202 l -2.465,3.729 -2.002,10.446 -2.002,10.446 -0.262,14.583 c -0.325,18.008 0.89,34.279 3.494,46.796 2.055,9.878 6.953,21.721 9.932,24.015 l 1.708,1.315 3.171,-3.573 c 4.334,-4.881 11.746,-9.516 16.98,-10.616 2.391,-0.503 11.666,-1.022 20.612,-1.153 19.252,-0.282 41.464,-2.418 47.082,-4.528 4.403,-1.653 6.03,-3.268 9.693,-9.623 l 2.445,-4.243 -2.439,-13.4 -2.439,-13.4 0.171,-11.751 0.172,-11.75 2.37,-9.083 c 1.304,-4.996 2.559,-11.892 2.788,-15.325 l 0.418,-6.241 -8.726,-7.095 c -10.031,-8.157 -17.394,-16.173 -17.976,-19.57 -0.599,-3.501 1.169,-2.762 6.446,2.696 6.266,6.48 12.231,10.346 16.396,10.624 l 3.388,0.227 1.488,-1.698 1.488,-1.699 -0.09,-9.088 c -0.05,-4.999 -0.201,-12.221 -0.337,-16.051 l -0.248,-6.962 1.276,0.985 c 0.702,0.543 2.077,3.492 3.055,6.555 l 1.779,5.569 0.194,14.135 0.193,14.135 -2.862,21.935 -2.862,21.934 0.619,8.252 c 0.658,8.784 2.665,14.172 5.346,14.351 0.901,0.061 4.141,-2.113 7.2,-4.831 l 5.561,-4.941 7.242,-14.493 c 8.585,-17.181 13.512,-24.744 18.789,-28.838 6.16,-4.78 19.183,-19.213 26.222,-29.061 7.258,-10.155 17.042,-27.886 21.563,-39.078 1.654,-4.094 3.447,-7.991 3.984,-8.66 0.536,-0.668 9.147,-5.65 19.134,-11.07 l 18.16,-9.856 4.799,-5.265 4.799,-5.266 4.511,0.301 4.512,0.301 0.126,3.243 0.125,3.243 3.916,0.141 3.916,0.141 4.046,-2.919 4.047,-2.919 3.835,0.626 3.835,0.627 -5.322,6.399 c -7.142,8.59 -11.65,11.002 -26.804,14.345 -15.506,3.42 -27.602,7.687 -31.472,11.102 -4.5,3.971 -13.12,15.803 -15.082,20.704 -0.982,2.451 -2.338,7.29 -3.014,10.753 -1.865,9.553 -5.482,17.806 -11.578,26.415 l -5.516,7.791 -10.3,9.005 -10.3,9.005 -4.654,6.747 c -5.347,7.751 -8.141,14.994 -7.445,19.299 l 0.484,2.988 3.788,1.651 3.789,1.651 6.693,-0.016 6.694,-0.015 8.894,-3.858 c 4.891,-2.122 12.117,-5.765 16.056,-8.096 7.791,-4.61 12.361,-5.602 18.3,-3.973 l 3.842,1.054 15.314,12.802 c 8.423,7.041 15.56,13.311 15.861,13.933 l 0.548,1.132 -3.568,-0.252 c -4.199,-0.294 -11.085,-4.247 -21.534,-12.362 -4.154,-3.226 -9.369,-6.326 -11.588,-6.888 l -4.035,-1.023 -4.257,1.598 -4.256,1.598 -7.586,7.401 -7.586,7.401 -7.835,3.786 c -13.65,6.596 -27.524,10.378 -40.703,11.095 -4.569,0.249 -9.011,1.006 -9.871,1.683 -0.86,0.676 -3.425,5.458 -5.7,10.626 -6.086,13.82 -12.38,24.5 -15.789,26.79 -3.334,2.239 -10.394,3.309 -27.435,4.156 -19.456,0.968 -30.335,4.187 -39.245,11.612 -5.327,4.44 -6.242,6.171 -14.382,27.212 l -6.831,17.658 -0.566,7.608 -0.565,7.607 1.681,4.075 c 0.925,2.242 4.258,7.524 7.407,11.739 3.149,4.216 6.835,10.096 8.192,13.069 2.884,6.32 4.899,18.452 4.388,26.428 -0.975,15.235 -9.02,35.03 -21.941,53.983 -32.812,48.134 -53.912,109.328 -57.854,167.784 l -1.174,17.414 0.861,12.559 c 0.474,6.907 1.7,16.014 2.726,20.238 l 1.864,7.679 17.592,3.943 c 9.676,2.169 25.776,6.33 35.778,9.247 20.338,5.931 21.667,6.175 21.812,4.006 0.057,-0.843 0.789,-2.418 1.628,-3.5 l 1.524,-1.967 9.935,2.568 c 5.463,1.413 10.134,2.379 10.378,2.146 0.245,-0.232 2.403,-4.481 4.796,-9.443 l 4.351,-9.02 1.925,0.203 c 1.059,0.111 3.489,0.661 5.401,1.219 l 3.477,1.016 3.765,-5.718 3.765,-5.718 2.885,0.831 c 6.445,1.858 13.868,3.122 13.918,2.37 0.03,-0.441 7.704,-30.949 17.054,-67.797 l 17,-66.997 -0.003,-4.964 -0.002,-4.964 -3.102,-2.204 -3.102,-2.204 -20.775,-5.2 c -11.426,-2.859 -21.308,-5.823 -21.96,-6.586 l -1.185,-1.388 3.712,-16.219 c 2.042,-8.92 4.045,-17.387 4.452,-18.816 l 0.741,-2.597 2.147,0.144 c 1.181,0.079 10.274,2.304 20.207,4.945 l 18.059,4.802 5.133,-0.016 5.133,-0.017 2.503,-3.499 2.502,-3.5 4.433,-21.913 c 2.437,-12.053 5.099,-25.265 5.915,-29.361 0.816,-4.097 2.04,-7.77 2.72,-8.163 1.664,-0.962 38.608,8.424 40.139,10.198 l 1.209,1.4 -7.249,28.172 c -3.986,15.495 -7.351,29.717 -7.477,31.606 l -0.23,3.433 2.385,2.965 c 2.973,3.695 6.048,4.818 28.958,10.578 10.119,2.543 18.695,4.993 19.056,5.443 0.883,1.097 -7.295,36.904 -8.743,38.279 l -1.139,1.082 -20.51,-5.161 c -11.281,-2.839 -22.256,-5.265 -24.389,-5.391 l -3.879,-0.228 -1.888,1.98 c -2.483,2.605 -3.677,7.406 -11.421,45.943 -3.592,17.873 -9.509,47.32 -13.149,65.437 l -6.618,32.939 1.321,1.021 c 0.726,0.561 4.029,1.547 7.341,2.191 3.311,0.644 6.685,1.683 7.498,2.308 0.813,0.625 1.787,3.952 2.165,7.394 l 0.686,6.259 5.152,1.156 c 2.834,0.637 5.446,1.521 5.805,1.967 0.359,0.445 0.51,5.465 0.335,11.155 l -0.317,10.347 8.302,2.043 8.302,2.043 0.311,5.288 c 0.171,2.908 -0.067,10.946 -0.529,17.862 l -0.841,12.574 1.548,1.594 1.548,1.595 8.916,-0.138 c 4.903,-0.076 25.451,-0.382 45.661,-0.679 20.211,-0.297 37.182,-0.793 37.715,-1.101 l 0.969,-0.56 4.613,-68.985 4.613,-68.986 3.493,-0.735 3.494,-0.736 1.642,-6.306 c 2.118,-8.131 6.105,-15.125 12.065,-21.164 l 4.76,-4.823 8.116,-3.681 8.115,-3.68 8.929,0.557 8.929,0.557 6.027,3.045 c 12.719,6.426 20.985,18.355 23.324,33.66 l 1.234,8.075 2.21,0.157 c 1.216,0.086 2.75,0.828 3.41,1.648 l 1.2,1.492 -4.33,64.755 -4.329,64.755 1.347,0.095 c 6.031,0.43 48.166,-0.742 48.863,-1.359 0.491,-0.435 1.915,-8.622 3.164,-18.193 l 2.271,-17.403 4.129,-10.721 4.128,-10.722 2.624,-0.883 c 1.443,-0.486 4.169,-0.788 6.059,-0.672 6.497,0.399 6.179,1.422 11.271,-36.279 3.12,-23.092 13.391,-97.19 18.04,-130.143 l 2.412,-17.095 34.688,-32.902 34.688,-32.902 -2.256,-3.843 -2.257,-3.843 1.232,-3.146 1.233,-3.147 3.596,-1.524 3.597,-1.524 0.161,-2.048 c 0.219,-2.777 4.295,-6.476 6.944,-6.298 2.924,0.195 6.198,4.5 5.974,7.856 l -0.183,2.739 2.578,1.497 2.578,1.498 0.487,3.013 c 0.7,4.324 -0.857,8.528 -3.414,9.222 -1.213,0.33 -2.233,1.019 -2.267,1.534 -0.034,0.514 3.948,7.758 8.851,16.097 4.902,8.339 12.956,22.049 17.898,30.466 4.942,8.417 11.908,20.263 15.479,26.324 l 6.494,11.02 -1.192,8.154 c -0.656,4.484 -3.997,28.344 -7.425,53.021 -3.428,24.677 -8.631,62.118 -11.561,83.203 l -5.329,38.335 0.806,0.977 c 0.444,0.538 3.412,1.879 6.596,2.981 l 5.79,2.004 1.211,10.015 c 0.665,5.508 1.065,12.519 0.888,15.58 l -0.323,5.566 4.049,0.187 c 2.228,0.103 18.2,-0.027 35.495,-0.29 l 31.444,-0.477 0.195,-2.911 0.195,-2.911 -7.157,-0.171 -7.156,-0.17 -0.355,-4.338 c -0.195,-2.386 -0.072,-4.766 0.274,-5.288 0.346,-0.523 3.511,-0.758 7.035,-0.522 l 6.407,0.428 0.23,-3.445 0.23,-3.445 -7.374,0.177 -7.374,0.178 0.058,-4.692 0.059,-4.691 4.128,-0.459 c 2.27,-0.253 5.463,-0.376 7.094,-0.274 l 2.967,0.185 0.094,-1.414 c 0.167,-2.492 -0.824,-37.95 -1.129,-40.411 -0.161,-1.305 -1.869,-4.492 -3.795,-7.083 -1.925,-2.59 -3.481,-4.999 -3.457,-5.353 0.023,-0.354 1.557,-2.752 3.409,-5.33 l 3.366,-4.687 -0.567,-19.997 c -0.313,-10.999 -0.551,-20.684 -0.531,-21.524 l 0.037,-1.526 -6.636,0.369 -6.637,0.368 -0.841,-1.692 c -0.462,-0.931 -0.756,-3.073 -0.652,-4.76 l 0.189,-3.068 4.092,-0.456 c 2.251,-0.25 5.46,-0.37 7.131,-0.265 l 3.038,0.19 -0.126,-3.243 -0.126,-3.243 -7.307,-0.074 -7.306,-0.075 0.317,-4.75 0.318,-4.751 4.098,-0.54 4.098,-0.541 2.621,-2.659 2.62,-2.659 -0.937,-2.271 c -0.515,-1.249 -0.865,-3.341 -0.777,-4.649 l 0.159,-2.377 -2.185,-1.473 -2.184,-1.473 -1.264,1.201 c -2.24,2.129 -3.14,1.168 -2.533,-2.707 l 0.592,-3.783 2.991,-0.172 2.99,-0.172 0.311,-4.653 0.311,-4.653 2.464,-4.446 c 1.355,-2.446 2.569,-6.017 2.697,-7.937 0.128,-1.92 0.717,-3.77 1.307,-4.112 l 1.075,-0.621 0.83,4.659 c 0.456,2.562 1.541,5.391 2.409,6.286 2.303,2.372 4.269,7.879 4.039,11.314 l -0.2,2.986 2.619,0.175 c 2.913,0.195 5.823,3.171 5.649,5.777 l -0.113,1.695 -2.461,-0.85 -2.461,-0.851 -1.23,1.464 c -0.676,0.805 -1.643,3.95 -2.149,6.989 l -0.92,5.525 1.432,0.096 c 0.787,0.053 1.832,1.019 2.321,2.149 l 0.89,2.052 10.355,-0.618 10.354,-0.618 2.312,-2.197 2.312,-2.196 -1.028,-5.107 c -0.566,-2.809 -1.793,-5.709 -2.727,-6.445 l -1.698,-1.338 -2.284,1.336 -2.284,1.335 -0.485,-1.731 c -0.719,-2.571 1.734,-6.106 4.646,-6.694 l 2.558,-0.517 -0.169,-4.193 -0.17,-4.193 2.663,-5.598 c 1.464,-3.079 2.772,-7.243 2.907,-9.255 l 0.244,-3.658 0.916,0.708 c 0.504,0.389 1.135,2.063 1.403,3.72 0.268,1.657 2.014,5.525 3.879,8.594 l 3.39,5.581 -0.228,3.424 -0.229,3.423 3.019,0.202 c 3.454,0.231 5.482,2.249 5.281,5.256 l -0.138,2.071 -1.586,-0.789 c -0.872,-0.434 -2.351,-0.188 -3.286,0.55 l -1.701,1.338 -0.382,5.711 -0.382,5.712 1.229,0.082 c 0.676,0.045 1.741,0.964 2.367,2.041 l 1.137,1.96 14.322,-0.524 14.322,-0.524 0.095,-1.428 c 0.053,-0.785 0.89,-2.052 1.861,-2.817 l 1.766,-1.389 -0.425,-3.664 c -0.753,-6.475 -1.134,-7.596 -2.874,-8.462 -0.939,-0.468 -2.245,-0.339 -2.902,0.285 -1.926,1.83 -2.933,1.214 -2.74,-1.673 0.224,-3.356 2.262,-5.377 5.22,-5.18 l 2.263,0.152 -0.162,-4.015 -0.162,-4.015 3.149,-5.005 c 1.732,-2.752 3.259,-6.639 3.392,-8.638 0.134,-1.998 0.725,-3.912 1.313,-4.252 l 1.07,-0.619 0.438,4.183 c 0.241,2.3 1.711,6.191 3.268,8.646 l 2.829,4.464 -0.302,4.523 -0.302,4.523 3.197,0.214 3.197,0.214 0.965,2.339 c 0.531,1.287 0.927,2.911 0.88,3.61 l -0.085,1.27 -2.461,-0.85 -2.461,-0.851 -1.221,1.464 c -0.672,0.806 -1.69,3.947 -2.262,6.982 l -1.039,5.517 1.543,0.104 c 0.849,0.056 1.882,0.869 2.296,1.805 l 0.752,1.702 14.127,-0.681 c 7.77,-0.375 14.25,-0.685 14.399,-0.689 0.149,0 0.24,-0.407 0.202,-0.895 -0.189,-2.428 0.538,-3.787 1.973,-3.691 l 1.591,0.107 -0.418,-3.851 c -0.231,-2.118 -0.757,-5.123 -1.171,-6.678 l -0.752,-2.827 -3.25,0.297 -3.251,0.298 0.173,-2.581 c 0.223,-3.332 2.993,-5.485 5.778,-4.489 l 2.187,0.783 -0.43,-3.226 -0.431,-3.225 3.56,-6.178 c 1.957,-3.398 4.019,-7.873 4.581,-9.943 1.236,-4.556 2.521,-3.932 2.96,1.438 0.178,2.175 1.48,6.112 2.895,8.749 l 2.572,4.795 -0.662,3.778 -0.661,3.779 2.312,0.155 c 2.395,0.16 5.661,3.701 5.509,5.973 -0.048,0.713 -1.624,1.36 -3.503,1.437 l -3.417,0.14 -1.662,5.463 -1.661,5.462 2.498,2.042 2.499,2.042 9.123,-0.214 9.124,-0.214 0.104,-1.56 c 0.058,-0.858 0.913,-1.98 1.902,-2.494 l 1.797,-0.934 -1.104,-5.841 -1.103,-5.841 -2.911,-0.567 -2.91,-0.567 -0.089,1.318 c -0.048,0.725 -0.551,0.96 -1.118,0.522 -2.709,-2.094 1.237,-8.739 5.039,-8.485 l 1.586,0.106 -0.166,-4.11 -0.166,-4.11 2.595,-4.098 c 1.427,-2.254 3.039,-6.376 3.581,-9.161 1.104,-5.67 2.291,-5.746 2.935,-0.189 0.236,2.035 1.753,5.796 3.372,8.359 l 2.944,4.66 -0.291,4.348 -0.291,4.348 1.819,-0.62 1.819,-0.619 2.423,1.981 c 1.333,1.089 2.361,2.911 2.285,4.048 l -0.139,2.068 -2.923,-0.241 -2.922,-0.242 -1.271,5.618 -1.271,5.618 2.488,2.863 2.488,2.863 9.58,-0.499 9.581,-0.498 2.115,-2.156 2.115,-2.156 -1,-4.442 c -0.55,-2.443 -1.438,-5.132 -1.973,-5.977 -1.157,-1.829 -4.988,-2.305 -5.099,-0.635 -0.043,0.644 -0.564,1.139 -1.157,1.099 -1.517,-0.101 -0.928,-6.355 0.748,-7.948 0.764,-0.725 2.231,-1.262 3.261,-1.193 l 1.874,0.125 -0.325,-3.975 -0.325,-3.975 2.646,-5.429 c 1.456,-2.986 2.768,-7.238 2.916,-9.448 l 0.269,-4.019 0.915,0.708 c 0.504,0.389 1.152,2.162 1.439,3.938 0.287,1.777 2.053,5.342 3.923,7.923 l 3.4,4.691 -0.269,4.023 -0.268,4.023 2.98,-0.022 2.98,-0.023 0.126,3.243 0.126,3.244 -1.574,-0.106 c -2.001,-0.134 -3.051,2.319 -3.432,8.021 l -0.302,4.509 2.107,0.888 2.107,0.888 -0.464,6.947 -0.465,6.946 -1.617,-0.108 -1.618,-0.108 -0.196,2.928 -0.195,2.927 1.531,0.102 1.531,0.103 -2.811,41.273 c -1.547,22.701 -2.986,39.342 -3.199,36.981 l -0.387,-4.294 -3.785,-4.141 c -2.082,-2.278 -3.738,-4.846 -3.68,-5.706 0.057,-0.86 1.4,-3.485 2.983,-5.833 l 2.88,-4.269 -1.628,-20.996 c -0.894,-11.547 -1.871,-21.298 -2.169,-21.669 -0.499,-0.62 -24.344,-0.106 -29.503,0.636 l -2.239,0.322 0.567,21.33 0.567,21.33 3.479,3.965 c 4.17,4.75 4.19,7.002 0.106,12.062 l -3.088,3.826 0.517,21.8 0.517,21.8 2.514,0.168 c 3.018,0.202 22.169,-0.637 27.162,-1.189 l 3.547,-0.393 -0.347,5.183 -0.346,5.183 -12.762,0.513 c -7.019,0.282 -14.381,0.675 -16.361,0.875 l -3.599,0.362 0.556,2.619 c 0.305,1.441 0.664,2.778 0.797,2.972 0.214,0.312 4.069,0.161 25.8,-1.009 l 5.164,-0.279 -0.344,5.146 -0.344,5.146 -15.198,0.489 -15.197,0.49 -0.267,4.228 c -0.147,2.326 0.115,4.994 0.58,5.931 l 0.846,1.702 14.197,-0.109 14.196,-0.108 -6.519,97.484 -6.519,97.485 -539.191,-36.054 -539.189,-36.053 z m 914.631,-18.283 1.892,0.055 0.16,-2.636 c 0.089,-1.45 -0.157,-3.258 -0.544,-4.018 l -0.703,-1.382 -18.836,0.863 c -10.36,0.475 -19.066,1.082 -19.347,1.349 -0.282,0.267 -0.149,1.795 0.294,3.395 l 0.805,2.91 17.194,-0.295 c 9.457,-0.162 18.045,-0.27 19.085,-0.241 z m 0,0 z m 37.958,-0.683 c 0.464,-0.254 0.967,-2.311 1.118,-4.572 l 0.275,-4.109 -8.952,0.229 c -13.011,0.333 -18.583,0.913 -18.449,1.923 0.065,0.489 0.026,2.259 -0.086,3.933 l -0.203,3.043 12.727,0.01 c 7,0 13.106,-0.2 13.57,-0.454 z m 0,0 z m 32.252,-0.392 7.06,-0.299 0.613,-3.932 c 0.337,-2.162 0.239,-4.348 -0.217,-4.857 -0.591,-0.659 -25.057,-0.333 -28.267,0.377 -0.152,0.034 -0.412,2.108 -0.579,4.61 l -0.304,4.549 7.316,-0.075 c 4.024,-0.041 10.494,-0.209 14.378,-0.373 z m 0,0 z m 40.441,-0.343 c 10.624,-0.169 19.533,-0.514 19.798,-0.765 0.264,-0.251 0.262,-2.82 -0.006,-5.708 l -0.486,-5.251 -3.208,0.079 c -1.765,0.044 -10.297,0.399 -18.962,0.788 -8.664,0.39 -16.603,0.653 -17.641,0.585 l -1.887,-0.124 -0.353,5.27 -0.352,5.269 1.89,0.082 c 1.04,0.047 10.583,-0.056 21.207,-0.225 z m 0,0 z m -120.859,-16.005 11.14,-0.552 0.07,-1.305 c 0.04,-0.717 -0.304,-2.057 -0.761,-2.979 l -0.833,-1.674 -17.259,0.759 c -9.493,0.417 -17.855,0.719 -18.582,0.67 -1.443,-0.096 -2.064,3.629 -0.86,5.154 0.755,0.956 6.627,0.941 27.085,-0.073 z m 0,0 z m 39.902,-1.612 8.668,-0.232 0.529,-2.148 c 0.291,-1.181 0.15,-2.612 -0.316,-3.179 l -0.845,-1.032 -13.297,0.591 c -7.313,0.324 -13.542,0.823 -13.842,1.108 -0.299,0.284 -0.341,1.708 -0.092,3.164 l 0.454,2.647 5.036,-0.344 c 2.77,-0.189 8.938,-0.448 13.705,-0.575 z m 0,0 z m 36.01,-1.51 12.227,-0.525 0.669,-1.553 c 0.368,-0.855 0.474,-2.248 0.236,-3.097 l -0.432,-1.543 -12.202,0.641 c -6.71,0.352 -13.295,0.593 -14.631,0.536 l -2.43,-0.105 -0.196,2.927 -0.196,2.927 2.363,0.158 c 1.3,0.087 7.866,-0.078 14.592,-0.366 z m 0,0 z m 47.431,-1.94 c 8.252,-0.396 15.482,-0.997 16.066,-1.335 1.409,-0.814 1.549,-3.643 0.232,-4.661 -0.577,-0.445 -9.817,-0.471 -20.535,-0.057 l -19.487,0.752 -0.695,1.615 c -1.836,4.264 1.593,4.782 24.419,3.686 z m 0,0 z m -131.231,-10.62 c 8.949,-0.194 16.629,-0.651 17.065,-1.017 0.673,-0.563 -1.148,-34.875 -2.23,-42.034 -0.198,-1.307 -1.762,-3.529 -3.476,-4.937 -1.715,-1.409 -3.331,-3.512 -3.591,-4.675 l -0.474,-2.115 3.029,-5.029 3.029,-5.029 -1.391,-20.419 c -0.765,-11.231 -1.667,-20.797 -2.004,-21.257 -0.541,-0.737 -31.623,0.142 -32.446,0.919 -0.179,0.168 -0.063,9.883 0.257,21.59 l 0.582,21.285 3.713,4.079 c 2.042,2.244 3.671,4.695 3.621,5.445 -0.05,0.751 -1.597,3.329 -3.438,5.729 l -3.347,4.364 0.581,20.034 c 0.319,11.019 0.539,20.994 0.489,22.166 l -0.09,2.132 1.925,-0.439 c 1.058,-0.241 9.247,-0.598 18.196,-0.792 z m 0,0 z m 44.686,-1.868 12.345,-0.568 0.1,-2.423 c 0.057,-1.332 0.076,-11.214 0.045,-21.959 l -0.057,-19.535 -3.164,-4.204 c -3.856,-5.123 -3.812,-7.317 0.244,-12.342 l 3.134,-3.882 0.048,-20.821 c 0.026,-11.452 -0.105,-21.014 -0.292,-21.249 -0.448,-0.564 -35.656,1.005 -36.301,1.618 -0.274,0.261 0.147,9.814 0.937,21.23 l 1.436,20.757 3.581,4.321 c 4.134,4.988 4.21,6.845 0.495,12.137 l -2.695,3.839 1.257,17.825 c 0.691,9.803 1.43,19.556 1.642,21.673 l 0.386,3.848 2.257,0.151 c 1.241,0.083 7.812,-0.104 14.602,-0.416 z m 0,0 z m 40.049,-1.802 c 5.381,-0.288 10.391,-0.485 11.132,-0.437 l 1.348,0.087 1.479,-22.543 1.479,-22.544 -2.977,-3.629 c -3.766,-4.592 -3.555,-7.628 0.844,-12.203 l 3.493,-3.63 1.404,-21.005 1.405,-21.005 -4.046,-0.235 c -5.962,-0.344 -31.795,1.019 -32.528,1.716 -0.347,0.329 -0.65,10.022 -0.674,21.541 l -0.044,20.943 3.348,4.306 c 1.842,2.369 3.303,4.985 3.247,5.814 -0.055,0.83 -1.587,3.443 -3.404,5.808 l -3.303,4.3 -0.047,13.403 c -0.026,7.372 -0.02,17.187 0.014,21.812 l 0.062,8.407 3.993,-0.192 c 2.196,-0.105 8.395,-0.428 13.775,-0.714 z m 0,0 z m 45.322,-1.835 c 8.194,-0.244 15.513,-0.799 16.264,-1.233 l 1.364,-0.79 -0.485,-21.412 -0.486,-21.412 -3.451,-3.761 -3.452,-3.761 0.154,-2.299 c 0.085,-1.264 1.5,-3.966 3.146,-6.005 l 2.991,-3.706 -0.497,-21.403 -0.497,-21.402 -9.764,0.17 c -5.369,0.094 -12.211,0.327 -15.202,0.519 l -5.44,0.349 -1.754,21.836 -1.754,21.836 2.999,4.092 c 3.75,5.115 3.631,6.98 -0.74,11.686 l -3.483,3.749 -1.432,21.174 c -0.787,11.646 -1.103,21.585 -0.699,22.087 0.403,0.502 2.215,0.737 4.027,0.522 1.811,-0.215 9.997,-0.591 18.191,-0.836 z m 0,0 z m -134.377,-111.282 13.899,-0.457 -0.122,-3.078 -0.123,-3.079 -3.785,-0.089 c -2.082,-0.049 -9.288,0.201 -16.014,0.556 l -12.23,0.646 -0.226,3.379 -0.225,3.379 2.463,-0.4 c 1.356,-0.22 8.719,-0.606 16.363,-0.857 z m 0,0 z m 43.114,-1.701 c 6.865,-0.209 13.837,-0.588 15.492,-0.842 l 3.01,-0.463 0.189,-2.834 0.19,-2.835 -2.427,-0.16 c -1.334,-0.088 -9.273,0.17 -17.64,0.572 -8.368,0.403 -15.821,0.698 -16.563,0.655 l -1.348,-0.077 -0.239,3.566 -0.238,3.566 3.546,-0.384 c 1.95,-0.211 9.163,-0.555 16.028,-0.764 z m 0,0 z m 48.34,-2.053 c 8.367,-0.403 15.578,-0.714 16.023,-0.691 0.446,0.021 0.898,-1.276 1.005,-2.886 l 0.196,-2.927 -4.043,-0.274 c -4.587,-0.31 -26.655,0.412 -30.397,0.996 l -2.463,0.383 -0.194,2.906 -0.194,2.905 2.426,0.16 c 1.335,0.088 9.273,-0.17 17.641,-0.572 z m 0,0 z m 39.409,-1.504 c 5.803,-0.265 12.147,-0.659 14.097,-0.875 l 3.547,-0.392 0.192,-2.875 0.192,-2.874 -2.363,-0.158 c -1.299,-0.087 -7.936,0.081 -14.747,0.373 l -12.383,0.531 -0.662,1.537 c -0.706,1.641 -0.063,5.106 0.961,5.174 0.338,0.023 5.363,-0.176 11.166,-0.441 z m 0,0 z m 49.922,-2.062 8.951,-0.209 0.235,-3.511 0.234,-3.512 -6.792,0.338 c -3.736,0.186 -10.62,0.412 -15.297,0.503 l -8.505,0.166 -0.661,1.538 c -0.364,0.845 -0.415,2.422 -0.112,3.503 l 0.55,1.966 6.224,-0.286 c 3.423,-0.158 10.251,-0.381 15.173,-0.496 z m 0,0 z"
         style="fill:#000000;fill-opacity:1"
         id="path2" />
    </g>
  </g>
</svg>
