<?xml version="1.0" encoding="UTF-8" standalone="no"?>
<svg
   width="344.29401"
   height="308.23499"
   id="screenshot-c93546d4-f54f-800c-8003-31f7dc47fc30"
   viewBox="367.767 602.848 344.294 308.235"
   style="-webkit-print-color-adjust:exact"
   fill="none"
   version="1.1"
   xmlns="http://www.w3.org/2000/svg"
   xmlns:svg="http://www.w3.org/2000/svg">
  <defs
     id="defs9" />
  <g
     id="shape-c93546d4-f54f-800c-8003-31f7dc47fc30">
    <g
       class="fills"
       id="fills-c93546d4-f54f-800c-8003-31f7dc47fc30">
      <path
         rx="0"
         ry="0"
         d="m 465.159,756.217 c -1.467,-2.417 -4.439,-5.537 -6.604,-6.933 l -3.937,-2.538 -5.707,-0.355 -5.706,-0.355 -6.457,2.381 -6.457,2.38 -0.499,-1.991 c -0.274,-1.095 -1.521,-3.733 -2.77,-5.861 l -2.27,-3.869 -4.739,-2.347 -4.738,-2.347 -7.083,0.143 -7.083,0.143 -1.382,-3.483 -1.382,-3.483 -4.967,-3.182 c -2.732,-1.75 -6.856,-3.686 -9.165,-4.302 -2.309,-0.616 -4.551,-1.372 -4.981,-1.68 -0.431,-0.309 2.794,-2.205 7.165,-4.215 l 7.949,-3.654 9.062,-8.505 9.062,-8.506 5.127,6.139 c 9.426,11.286 23.799,20.972 30.289,20.411 l 2.477,-0.213 0.847,-7.883 c 0.466,-4.336 1.112,-7.865 1.437,-7.844 0.324,0.022 1.746,1.17 3.16,2.551 l 2.571,2.511 2.884,-0.544 c 3.895,-0.735 5.706,-2.234 5.882,-4.868 0.275,-4.112 2.266,-2.075 5.069,5.187 l 2.796,7.245 1.715,0.114 c 2.434,0.163 14.073,-11.576 18.747,-18.908 2.169,-3.403 5.075,-8.989 6.458,-12.414 l 2.514,-6.228 1.392,0.313 c 0.766,0.171 5.589,2.263 10.717,4.648 l 9.325,4.336 9.22,1.39 9.221,1.39 -5.955,4.031 c -6.688,4.528 -10.311,9.335 -11.665,15.477 l -0.917,4.157 -5.388,1.119 -5.389,1.119 -5.261,4.536 -5.262,4.536 -1.148,6.392 -1.148,6.393 -8.132,0.116 -8.131,0.116 -3.36,1.65 c -5.874,2.885 -12.117,11.108 -12.472,16.428 -0.27,4.033 -2.167,3.707 -4.931,-0.844 z"
         style="fill:#000000;fill-opacity:1"
         id="path2" />
    </g>
  </g>
</svg>
