<?xml version="1.0" encoding="UTF-8" standalone="no"?>
<svg
   width="344.29401"
   height="308.23499"
   id="screenshot-c93546d4-f54f-800c-8003-31f7dc47fc30"
   viewBox="367.767 602.848 344.294 308.235"
   style="-webkit-print-color-adjust:exact"
   fill="none"
   version="1.1"
   xmlns="http://www.w3.org/2000/svg"
   xmlns:svg="http://www.w3.org/2000/svg">
  <defs
     id="defs9" />
  <g
     id="shape-c93546d4-f54f-800c-8003-31f7dc47fc30">
    <g
       class="fills"
       id="fills-c93546d4-f54f-800c-8003-31f7dc47fc30">
      <path
         rx="0"
         ry="0"
         d="m 621.339,902.1 c -0.827,-7.898 -5.978,-13.151 -14.936,-15.231 l -4.926,-1.144 -0.267,-4.742 -0.266,-4.741 -2.779,-3.61 c -1.529,-1.985 -4.58,-4.331 -6.779,-5.213 l -4,-1.603 0.193,-2.897 c 0.246,-3.679 -2.888,-10.213 -6.196,-12.917 -3.673,-3.001 -3.068,-3.895 2.125,-3.136 4.009,0.587 16.607,-1.431 21.789,-3.49 l 1.835,-0.729 1.018,4.559 c 1.742,7.81 6.325,17.924 10.312,22.761 l 3.822,4.638 1.376,-1.479 c 0.757,-0.814 2.516,-3.256 3.909,-5.427 l 2.532,-3.948 0.788,3.288 0.787,3.287 3.082,0.206 c 1.694,0.113 3.416,-0.301 3.826,-0.92 0.409,-0.62 1.256,-1.093 1.882,-1.051 l 1.137,0.076 -1.043,5.042 -1.043,5.042 1.442,1.486 1.443,1.486 5.373,-1.545 c 6.594,-1.895 13.744,-5.663 18.897,-9.957 l 3.885,-3.238 6.862,8.529 c 3.774,4.691 8.37,9.383 10.214,10.426 4.027,2.278 4.237,3.734 0.504,3.484 -3.923,-0.262 -10.669,2.49 -12.925,5.273 l -1.935,2.387 -6.484,-0.723 -6.483,-0.723 -3.447,1.644 c -1.896,0.904 -3.475,2.056 -3.509,2.56 -0.033,0.505 -0.761,1.82 -1.616,2.923 l -1.555,2.006 -4.066,-2.745 -4.067,-2.745 -4.888,-0.327 -4.888,-0.327 -4.223,2.701 c -2.323,1.485 -4.257,3.208 -4.298,3.829 -0.193,2.876 -2.039,0.563 -2.414,-3.025 z"
         style="fill:#000000;fill-opacity:1"
         id="path2" />
    </g>
  </g>
</svg>
