<?xml version="1.0" encoding="UTF-8" standalone="no"?>
<svg
   width="344.29401"
   height="308.23499"
   id="screenshot-c93546d4-f54f-800c-8003-31f7dc47fc30"
   viewBox="367.767 602.848 344.294 308.235"
   style="-webkit-print-color-adjust:exact"
   fill="none"
   version="1.1"
   xmlns="http://www.w3.org/2000/svg"
   xmlns:svg="http://www.w3.org/2000/svg">
  <defs
     id="defs9" />
  <g
     id="shape-c93546d4-f54f-800c-8003-31f7dc47fc30">
    <g
       class="fills"
       id="fills-c93546d4-f54f-800c-8003-31f7dc47fc30"
       style="fill:#f2ca36;fill-opacity:1">
      <path
         rx="0"
         ry="0"
         d="m 600.85626,794.515 c -4.16191,-0.752 -9.88606,-2.203 -12.72091,-3.225 l -5.15477,-1.858 7.36474,-2.234 c 10.36289,-3.144 21.19391,-9.562 29.27607,-17.35 l 6.91839,-6.665 4.85649,-8.287 c 2.67046,-4.559 5.96582,-12.118 7.32228,-16.8 l 2.4658,-8.511 0.17963,-9.987 0.17962,-9.987 -2.35802,-8.688 c -6.73333,-24.814 -24.82565,-43.039 -49.48584,-49.85 -12.3475,-3.411 -23.56063,-3.362 -38.47954,0.167 l -2.92195,0.691 2.83268,-3.443 c 1.55787,-1.894 6.86831,-6.703 11.79992,-10.687 l 8.96724,-7.243 11.04983,-4.57 c 6.07795,-2.513 14.55203,-5.28 18.83043,-6.147 l 7.78062,-1.576 15.25203,1.065 15.25204,1.065 9.16754,3.658 c 5.04265,2.012 12.97023,6.092 17.61877,9.067 l 8.45013,5.409 8.80068,10.065 c 12.24844,14.007 18.47444,27.42 21.41055,46.127 l 1.30529,8.313 -1.55677,13.431 -1.55787,13.431 -4.22506,9.971 c -2.32428,5.484 -6.79647,13.678 -9.93832,18.209 l -5.71326,8.238 -8.98356,7.682 c -20.72579,17.723 -47.83435,25.242 -73.9849,20.519 z"
         style="fill:#efe58e;fill-opacity:1;stroke-width:1.04338"
         id="path2" />
    </g>
  </g>
</svg>
