<svg xmlns:xlink="http://www.w3.org/1999/xlink" width="344.294" xmlns="http://www.w3.org/2000/svg" height="308.235" id="screenshot-c93546d4-f54f-800c-8003-31f7dc47fc30" viewBox="367.767 602.848 344.294 308.235" style="-webkit-print-color-adjust: exact;" fill="none" version="1.1"><g id="shape-c93546d4-f54f-800c-8003-31f7dc47fc30"><g class="fills" id="fills-c93546d4-f54f-800c-8003-31f7dc47fc30"><path rx="0" ry="0" d="M621.339,902.100C620.512,894.202,615.361,888.949,606.403,886.869L601.477,885.725L601.210,880.983L600.944,876.242L598.165,872.632C596.636,870.647,593.585,868.301,591.386,867.419L587.386,865.816L587.579,862.919C587.825,859.240,584.691,852.706,581.383,850.002C577.710,847.001,578.315,846.107,583.508,846.866C587.517,847.453,600.115,845.435,605.297,843.376L607.132,842.647L608.150,847.206C609.892,855.016,614.475,865.130,618.462,869.967L622.284,874.605L623.660,873.126C624.417,872.312,626.176,869.870,627.569,867.699L630.101,863.751L630.889,867.039L631.676,870.326L634.758,870.532C636.452,870.645,638.174,870.231,638.584,869.612C638.993,868.992,639.840,868.519,640.466,868.561L641.603,868.637L640.560,873.679L639.517,878.721L640.959,880.207L642.402,881.693L647.775,880.148C654.369,878.253,661.519,874.485,666.672,870.191L670.557,866.953L677.419,875.482C681.193,880.173,685.789,884.865,687.633,885.908C691.660,888.186,691.870,889.642,688.137,889.392C684.214,889.130,677.468,891.882,675.212,894.665L673.277,897.052L666.793,896.329L660.310,895.606L656.863,897.250C654.967,898.154,653.388,899.306,653.354,899.810C653.321,900.315,652.593,901.630,651.738,902.733L650.183,904.739L646.117,901.994L642.050,899.249L637.162,898.922L632.274,898.595L628.051,901.296C625.728,902.781,623.794,904.504,623.753,905.125C623.560,908.001,621.714,905.688,621.339,902.100ZL621.339,902.100ZM609.485,794.515C605.662,793.763,600.404,792.312,597.800,791.290L593.065,789.432L599.830,787.198C609.349,784.054,619.298,777.636,626.722,769.848L633.077,763.183L637.538,754.896C639.991,750.337,643.018,742.778,644.264,738.096L646.529,729.585L646.694,719.598L646.859,709.611L644.693,700.923C638.508,676.109,621.889,657.884,599.237,651.073C587.895,647.662,577.595,647.711,563.891,651.240L561.207,651.931L563.809,648.488C565.240,646.594,570.118,641.785,574.648,637.801L582.885,630.558L593.035,625.988C598.618,623.475,606.402,620.708,610.332,619.841L617.479,618.265L631.489,619.330L645.499,620.395L653.920,624.053C658.552,626.065,665.834,630.145,670.104,633.120L677.866,638.529L685.950,648.594C697.201,662.601,702.920,676.014,705.617,694.721L706.816,703.034L705.386,716.465L703.955,729.896L700.074,739.867C697.939,745.351,693.831,753.545,690.945,758.076L685.697,766.314L677.445,773.996C658.407,791.719,633.506,799.238,609.485,794.515ZL609.485,794.515ZM465.159,756.217C463.692,753.800,460.720,750.680,458.555,749.284L454.618,746.746L448.911,746.391L443.205,746.036L436.748,748.417L430.291,750.797L429.792,748.806C429.518,747.711,428.271,745.073,427.022,742.945L424.752,739.076L420.013,736.729L415.275,734.382L408.192,734.525L401.109,734.668L399.727,731.185L398.345,727.702L393.378,724.520C390.646,722.770,386.522,720.834,384.213,720.218C381.904,719.602,379.662,718.846,379.232,718.538C378.801,718.229,382.026,716.333,386.397,714.323L394.346,710.669L403.408,702.164L412.470,693.658L417.597,699.797C427.023,711.083,441.396,720.769,447.886,720.208L450.363,719.995L451.210,712.112C451.676,707.776,452.322,704.247,452.647,704.268C452.971,704.290,454.393,705.438,455.807,706.819L458.378,709.330L461.262,708.786C465.157,708.051,466.968,706.552,467.144,703.918C467.419,699.806,469.410,701.843,472.213,709.105L475.009,716.350L476.724,716.464C479.158,716.627,490.797,704.888,495.471,697.556C497.640,694.153,500.546,688.567,501.929,685.142L504.443,678.914L505.835,679.227C506.601,679.398,511.424,681.490,516.552,683.875L525.877,688.211L535.097,689.601L544.318,690.991L538.363,695.022C531.675,699.550,528.052,704.357,526.698,710.499L525.781,714.656L520.393,715.775L515.004,716.894L509.743,721.430L504.481,725.966L503.333,732.358L502.185,738.751L494.053,738.867L485.922,738.983L482.562,740.633C476.688,743.518,470.445,751.741,470.090,757.061C469.820,761.094,467.923,760.768,465.159,756.217ZL465.159,756.217Z" style="fill: rgb(0, 0, 0); fill-opacity: 1;"/></g></g></svg>